#!OML:ASF H:\Pregnant\Project 1\Capture day 1\Session 1\femalepreg.ASF
:FULLY-SPECIFIED
:DEGREES
661
root 2.17341 6.99072 18.5633 -114.455 9.05277 170.671
lowerback 8.01723 0.520601 0.782296
upperback 4.72301 1.06103 0.103002
thorax 0.395531 0.670114 -0.411435
lowerneck -29.5783 -3.42804 -9.21891
upperneck 7.43211 -1.91107 0.984804
head 6.94095 -1.37012 1.46332
rclavicle -2.38542e-014 2.14687e-014
rhumerus 30.3602 12.1531 -60.4545
rradius 98.9898
rwrist 6.8701
rhand -30.0055 -23.1205
rfingers 7.12502
rthumb -3.32275 -53.0744
lclavicle -2.38542e-014 2.14687e-014
lhumerus 38.261 -31.5408 75.7684
lradius 53.7469
lwrist -6.6964
lhand -58.6012 -267.565
lfingers 7.12502
lthumb -30.8192 -64.9993
rfemur -14.6968 -3.84888 5.63382
rtibia 51.1911
rfoot 1.77885 16.6136
rtoes -11.8013
lfemur -177.152 -18.3946 -44.803
ltibia 110.688
lfoot 2.97799 4.53339
ltoes 18.1645
662
root 2.16953 6.99867 18.5648 -114.19 9.0582 170.462
lowerback 8.12268 0.509707 0.751438
upperback 4.77704 1.05339 0.178388
thorax 0.391324 0.667795 -0.317095
lowerneck -29.5158 -3.4517 -9.27135
upperneck 7.30983 -1.94927 1.07831
head 6.8935 -1.37857 1.49882
rclavicle 4.77083e-014 5.20816e-014
rhumerus 30.7047 11.8235 -60.4082
rradius 99.4665
rwrist 8.15345
rhand -29.3607 -23.3205
rfingers 7.12502
rthumb -2.70008 -53.2831
lclavicle 4.77083e-014 5.20816e-014
lhumerus 38.2504 -31.4898 75.8503
lradius 54.6841
lwrist -6.88688
lhand -58.6381 -268.623
lfingers 7.12502
lthumb -30.8544 -63.9479
rfemur -15.0067 -3.99128 5.4805
rtibia 51.0667
rfoot 3.80786 16.4355
rtoes -11.3449
lfemur -177.106 -18.7094 -44.863
ltibia 110.432
lfoot 3.03464 4.49966
ltoes 18.1254
663
root 2.16659 7.00651 18.5664 -113.933 9.06238 170.282
lowerback 8.23596 0.504815 0.728703
upperback 4.82945 1.05429 0.243429
thorax 0.381637 0.669974 -0.238719
lowerneck -29.441 -3.47194 -9.29522
upperneck 7.1978 -1.99176 1.16805
head 6.84796 -1.38799 1.52826
rclavicle 6.36111e-014 5.04913e-014
rhumerus 31.0701 11.4686 -60.3698
rradius 99.9014
rwrist 9.2791
rhand -28.7949 -23.5689
rfingers 7.12502
rthumb -2.15365 -53.5378
lclavicle 6.36111e-014 5.04913e-014
lhumerus 38.2177 -31.4517 75.9132
lradius 55.651
lwrist -7.07407
lhand -58.6891 -269.785
lfingers 7.12502
lthumb -30.903 -62.7952
rfemur -15.3282 -4.09926 5.34589
rtibia 50.9602
rfoot 5.70874 16.184
rtoes -10.9943
lfemur -177.075 -18.9906 -44.9185
ltibia 110.189
lfoot 3.08728 4.45929
ltoes 18.0944
664
root 2.16501 7.01343 18.5675 -113.709 9.06928 170.132
lowerback 8.37035 0.506735 0.703069
upperback 4.89507 1.06599 0.305616
thorax 0.374164 0.678228 -0.162659
lowerneck -29.3565 -3.49171 -9.30801
upperneck 7.08434 -2.03723 1.25073
head 6.80069 -1.39915 1.55328
rclavicle -1.27222e-014 2.90226e-014
rhumerus 31.4571 11.1048 -60.3301
rradius 100.294
rwrist 10.2901
rhand -28.3679 -23.8608
rfingers 7.12502
rthumb -1.74127 -53.8334
lclavicle -1.27222e-014 2.90226e-014
lhumerus 38.1734 -31.4208 75.9613
lradius 56.6454
lwrist -7.26448
lhand -58.7561 -448.952
lfingers 7.12502
lthumb -30.9669 -61.5442
rfemur -15.6263 -4.1619 5.22761
rtibia 50.8645
rfoot 7.4896 15.8878
rtoes -10.7125
lfemur -177.054 -19.2206 -44.9754
ltibia 109.979
lfoot 3.13505 4.41369
ltoes 18.0782
665
root 2.16445 7.01959 18.5684 -113.504 9.07792 170.01
lowerback 8.49868 0.509474 0.672608
upperback 4.97595 1.07988 0.369058
thorax 0.385781 0.688117 -0.0824815
lowerneck -29.2652 -3.5081 -9.3216
upperneck 6.957 -2.07884 1.32633
head 6.74761 -1.40948 1.57658
rclavicle -6.36111e-015 -5.96354e-015
rhumerus 31.8624 10.7555 -60.2964
rradius 100.658
rwrist 11.248
rhand -28.0801 -24.1813
rfingers 7.12502
rthumb -1.46331 -54.156
lclavicle -6.36111e-015 -5.96354e-015
lhumerus 38.1185 -31.3713 76.0022
lradius 57.675
lwrist -7.46984
lhand -58.8315 -447.594
lfingers 7.12502
lthumb -31.0387 -60.2001
rfemur -15.9154 -4.18828 5.1222
rtibia 50.7761
rfoot 9.16485 15.5806
rtoes -10.5183
lfemur -177.052 -19.4107 -45.0252
ltibia 109.795
lfoot 3.17742 4.36763
ltoes 18.0738
666
root 2.16464 7.02514 18.5693 -113.311 9.08376 169.912
lowerback 8.61273 0.508856 0.645639
upperback 5.07315 1.09094 0.432896
thorax 0.42223 0.697307 -0.00317164
lowerneck -29.1607 -3.52576 -9.34
upperneck 6.78626 -2.11979 1.34319
head 6.67731 -1.42707 1.58067
rclavicle 2.70347e-014 4.73108e-014
rhumerus 32.2665 10.4347 -60.2846
rradius 101.021
rwrist 12.1751
rhand -27.902 -24.5396
rfingers 7.12502
rthumb -1.29125 -54.5155
lclavicle 2.70347e-014 4.73108e-014
lhumerus 38.0593 -31.3022 76.03
lradius 58.7345
lwrist -7.69435
lhand -58.9209 -446.149
lfingers 7.12502
lthumb -31.124 -58.7715
rfemur -16.1943 -4.18348 5.03035
rtibia 50.6882
rfoot 10.7579 15.2846
rtoes -10.4262
lfemur -177.068 -19.5697 -45.0597
ltibia 109.632
lfoot 3.22 4.32338
ltoes 18.0567
667
root 2.16546 7.03018 18.5704 -113.12 9.08835 169.83
lowerback 8.70457 0.500555 0.62341
upperback 5.18113 1.09268 0.491921
thorax 0.482218 0.70233 0.0698151
lowerneck -29.0444 -3.54216 -9.36296
upperneck 6.57786 -2.15792 1.31567
head 6.59203 -1.44902 1.57083
rclavicle -9.54166e-015 4.79071e-014
rhumerus 32.6683 10.1539 -60.299
rradius 101.395
rwrist 13.0423
rhand -27.7949 -24.9682
rfingers 7.12502
rthumb -1.18781 -54.9446
lclavicle -9.54166e-015 4.79071e-014
lhumerus 38.0015 -31.2094 76.0356
lradius 59.8117
lwrist -7.93974
lhand -59.0178 -444.638
lfingers 7.12502
lthumb -31.2163 -57.2783
rfemur -16.4689 -4.15922 4.94509
rtibia 50.5965
rfoot 12.3014 15.0079
rtoes -10.4532
lfemur -177.104 -19.7101 -45.0809
ltibia 109.481
lfoot 3.26277 4.28278
ltoes 18.0295
668
root 2.16666 7.0351 18.572 -112.924 9.08755 169.758
lowerback 8.77725 0.480882 0.609478
upperback 5.29316 1.0799 0.545677
thorax 0.557227 0.700412 0.134307
lowerneck -28.9239 -3.54986 -9.36717
upperneck 6.34844 -2.19044 1.25559
head 6.49835 -1.47151 1.54799
rclavicle 3.33958e-014 2.16675e-014
rhumerus 33.0483 9.92596 -60.3455
rradius 101.8
rwrist 13.8601
rhand -27.7212 -25.4548
rfingers 7.12502
rthumb -1.11665 -55.4316
lclavicle 3.33958e-014 2.16675e-014
lhumerus 37.9478 -31.0926 76.0174
lradius 60.8937
lwrist -8.19907
lhand -59.1156 -443.097
lfingers 7.12502
lthumb -31.3095 -55.7553
rfemur -16.7429 -4.12884 4.86601
rtibia 50.4947
rfoot 13.8272 14.7482
rtoes -10.6314
lfemur -177.152 -19.8452 -45.0867
ltibia 109.331
lfoot 3.30827 4.24513
ltoes 17.9657
669
root 2.16841 7.03967 18.5742 -112.729 9.08509 169.69
lowerback 8.84996 0.449683 0.609751
upperback 5.39921 1.05217 0.581125
thorax 0.626665 0.691302 0.173141
lowerneck -28.7945 -3.54972 -9.35075
upperneck 6.10803 -2.22022 1.1824
head 6.39943 -1.49332 1.51825
rclavicle 4.77083e-014 2.40529e-014
rhumerus 33.4163 9.73448 -60.4179
rradius 102.217
rwrist 14.605
rhand -27.668 -25.9752
rfingers 7.12502
rthumb -1.06527 -55.9523
lclavicle 4.77083e-014 2.40529e-014
lhumerus 37.8913 -30.9667 75.9591
lradius 61.9712
lwrist -8.45344
lhand -59.2073 -441.541
lfingers 7.12502
lthumb -31.3969 -54.2156
rfemur -17.0076 -4.09662 4.7898
rtibia 50.3777
rfoot 15.3466 14.5055
rtoes -11.0008
lfemur -177.209 -19.9761 -45.0863
ltibia 109.186
lfoot 3.35714 4.20922
ltoes 17.8692
670
root 2.17108 7.04361 18.5766 -112.547 9.08318 169.625
lowerback 8.92781 0.412994 0.599878
upperback 5.50675 1.01689 0.614864
thorax 0.694836 0.678348 0.216492
lowerneck -28.6839 -3.55411 -9.36472
upperneck 5.88826 -2.24655 1.14506
head 6.31076 -1.51072 1.5057
rclavicle -2.70347e-014 -3.33958e-014
rhumerus 33.7799 9.57511 -60.4785
rradius 102.644
rwrist 15.276
rhand -27.6046 -26.5021
rfingers 7.12502
rthumb -1.00403 -56.4795
lclavicle -2.70347e-014 -3.33958e-014
lhumerus 37.8381 -30.8303 75.8891
lradius 63.0325
lwrist -8.70373
lhand -59.2944 -439.978
lfingers 7.12502
lthumb -31.4798 -52.6692
rfemur -17.2471 -4.06332 4.718
rtibia 50.2369
rfoot 16.8783 14.2674
rtoes -11.557
lfemur -177.268 -20.0964 -45.0897
ltibia 109.05
lfoot 3.40551 4.17451
ltoes 17.7673
671
root 2.17475 7.04682 18.5791 -112.377 9.08285 169.564
lowerback 9.01288 0.37314 0.585018
upperback 5.61204 0.97712 0.640679
thorax 0.75692 0.663087 0.254744
lowerneck -28.6004 -3.56321 -9.40151
upperneck 5.70999 -2.27083 1.16163
head 6.24073 -1.52194 1.51491
rclavicle -4.92986e-014 -4.65156e-014
rhumerus 34.1279 9.44192 -60.5284
rradius 103.075
rwrist 15.8877
rhand -27.5323 -26.989
rfingers 7.12502
rthumb -0.934152 -56.9667
lclavicle -4.92986e-014 -4.65156e-014
lhumerus 37.791 -30.6992 75.7926
lradius 64.0635
lwrist -8.94245
lhand -59.389 -438.444
lfingers 7.12502
lthumb -31.5699 -51.1532
rfemur -17.4597 -4.03022 4.65205
rtibia 50.0677
rfoot 18.4217 14.0292
rtoes -12.2505
lfemur -177.327 -20.2064 -45.101
ltibia 108.927
lfoot 3.4529 4.13835
ltoes 17.6649
672
root 2.17995 7.0486 18.5813 -112.238 9.08889 169.504
lowerback 9.121 0.333091 0.558927
upperback 5.72115 0.937489 0.65745
thorax 0.810498 0.648093 0.289728
lowerneck -28.533 -3.57239 -9.42985
upperneck 5.56171 -2.2962 1.20439
head 6.18347 -1.53038 1.53139
rclavicle 6.52014e-014 4.19436e-014
rhumerus 34.4643 9.32421 -60.5626
rradius 103.503
rwrist 16.4537
rhand -27.4323 -27.4025
rfingers 7.12502
rthumb -0.837623 -57.3806
lclavicle 6.52014e-014 4.19436e-014
lhumerus 37.7555 -30.582 75.6653
lradius 65.0456
lwrist -9.16777
lhand -59.5032 -436.944
lfingers 7.12502
lthumb -31.6788 -49.6738
rfemur -17.6129 -3.98685 4.59061
rtibia 49.8608
rfoot 19.981 13.7568
rtoes -12.8837
lfemur -177.382 -20.2942 -45.1325
ltibia 108.829
lfoot 3.49826 4.09833
ltoes 17.578
673
root 2.18671 7.0489 18.5831 -112.122 9.09827 169.444
lowerback 9.24346 0.293275 0.52515
upperback 5.83238 0.898412 0.665573
thorax 0.858657 0.633524 0.319962
lowerneck -28.5372 -3.57047 -9.39306
upperneck 5.5163 -2.3124 1.23936
head 6.16971 -1.533 1.53566
rclavicle 0 1.68967e-014
rhumerus 34.7938 9.21908 -60.5766
rradius 103.917
rwrist 16.9776
rhand -27.321 -27.7199
rfingers 7.12502
rthumb -0.730076 -57.6984
lclavicle 0 1.68967e-014
lhumerus 37.7361 -30.4841 75.5059
lradius 65.9542
lwrist -9.37655
lhand -59.6327 -435.538
lfingers 7.12502
lthumb -31.8021 -48.2929
rfemur -17.7136 -3.93922 4.53727
rtibia 49.6184
rfoot 21.5472 13.4297
rtoes -13.3807
lfemur -177.435 -20.3652 -45.1825
ltibia 108.752
lfoot 3.53967 4.0523
ltoes 17.5302
674
root 2.19495 7.04775 18.5846 -112.028 9.10897 169.382
lowerback 9.3764 0.254447 0.48793
upperback 5.94653 0.861209 0.665014
thorax 0.904399 0.620176 0.342995
lowerneck -28.5793 -3.56009 -9.28417
upperneck 5.52747 -2.32907 1.23046
head 6.17906 -1.53815 1.5136
rclavicle 9.54166e-015 6.75868e-015
rhumerus 35.1242 9.11785 -60.5646
rradius 104.306
rwrist 17.4762
rhand -27.2158 -27.929
rfingers 7.12502
rthumb -0.628531 -57.9078
lclavicle 9.54166e-015 6.75868e-015
lhumerus 37.7382 -30.4113 75.3121
lradius 66.7729
lwrist -9.56104
lhand -59.7674 -434.277
lfingers 7.12502
lthumb -31.9303 -47.0573
rfemur -17.7628 -3.8888 4.49381
rtibia 49.3439
rfoot 23.1062 13.03
rtoes -13.7138
lfemur -177.484 -20.4226 -45.2493
ltibia 108.695
lfoot 3.58252 3.99344
ltoes 17.4869
